{
  "asset": {
    "generator": "Khronos glTF Blender I/O v1.4.40",
    "version": "2.0"
  },
  "scene": 0,
  "scenes": [
    {
      "name": "Scene",
      "nodes": [0, 1, 32]
    }
  ],
  "nodes": [
    {
      "name": "Light",
      "rotation": [
        0.16907575726509094,
        0.7558803558349609,
        -0.27217137813568115,
        0.570947527885437
      ],
      "translation": [4.076245307922363, 5.903861999511719, -1.0054539442062378]
    },
    {
      "name": "Camera",
      "rotation": [
        0.483536034822464,
        0.33687159419059753,
        -0.20870360732078552,
        0.7804827094078064
      ],
      "translation": [7.358891487121582, 4.958309173583984, 6.925790786743164]
    },
    {
      "name": "spine.006",
      "rotation": [
        -0.05128508061170578,
        0.07296601682901382,
        -0.0037570756394416094,
        0.9960078597068787
      ],
      "scale": [0.9999999403953552, 1, 1],
      "translation": [-4.440892098500626e-16, 0.07499867677688599, 1.862645593320167e-9]
    },
    {
      "children": [2],
      "name": "spine.005",
      "rotation": [
        -0.13697290420532227,
        -4.2589892319789234e-15,
        -3.265688164333369e-8,
        0.990574836730957
      ],
      "scale": [1, 0.9999999403953552, 1],
      "translation": [7.105427357601002e-15, 0.04356060177087784, -2.9802322387695312e-8]
    },
    {
      "children": [3],
      "name": "spine.004",
      "rotation": [
        0.20173782110214233,
        5.4409385830611005e-15,
        4.8098044658217987e-8,
        0.9794395565986633
      ],
      "translation": [-3.23938387225553e-9, 0.1264013946056366, 0.013586960732936859]
    },
    {
      "name": "hand.L",
      "rotation": [
        0.20056244730949402,
        0.3620331883430481,
        -0.10516514629125595,
        0.9042383432388306
      ],
      "scale": [1, 0.9999999403953552, 1],
      "translation": [-4.59627109705707e-8, 0.2404499650001526, -1.3078652827402948e-8]
    },
    {
      "children": [5],
      "name": "forearm.L",
      "rotation": [
        0.3285370171070099,
        -0.019830187782645226,
        0.21525360643863678,
        0.9194217324256897
      ],
      "scale": [0.9999999403953552, 1, 1],
      "translation": [9.538568690459215e-8, 0.2407766431570053, 4.701477873680915e-9]
    },
    {
      "children": [6],
      "name": "upper_arm.L",
      "rotation": [0.08986160159111023, 0.7028914093971252, -0.260555237531662, 0.6557282209396362],
      "scale": [0.9999999403953552, 0.9999998807907104, 0.9999998807907104],
      "translation": [0.004718329757452011, 0.12806221842765808, -0.013646680861711502]
    },
    {
      "children": [7],
      "name": "shoulder.L",
      "rotation": [-0.58945631980896, -0.3577389121055603, -0.35437434911727905, 0.631650984287262],
      "translation": [0.012048311531543732, 0.08884185552597046, 0.104075126349926]
    },
    {
      "name": "hand.R",
      "rotation": [
        0.3585556149482727,
        0.8548142910003662,
        0.07265070080757141,
        0.36803844571113586
      ],
      "scale": [0.9999999403953552, 1, 0.9999999403953552],
      "translation": [4.4799314480314933e-8, 0.2813675105571747, -2.7175500960652244e-8]
    },
    {
      "children": [9],
      "name": "forearm.R",
      "rotation": [
        0.862787663936615,
        -0.39023149013519287,
        -0.08064910769462585,
        0.31114745140075684
      ],
      "scale": [1.0000001192092896, 0.9999999403953552, 0.9999999403953552],
      "translation": [-8.482684421551312e-8, 0.282794713973999, -2.1162437136013068e-8]
    },
    {
      "children": [10],
      "name": "upper_arm.R",
      "rotation": [
        -0.18585801124572754,
        -0.7075803875923157,
        0.38239026069641113,
        0.5644152164459229
      ],
      "scale": [0.9999998807907104, 0.9999997019767761, 0.9999999403953552],
      "translation": [-0.005129796452820301, 0.13219653069972992, -0.013421298004686832]
    },
    {
      "children": [11],
      "name": "shoulder.R",
      "rotation": [
        -0.6051542162895203,
        0.34586259722709656,
        0.35613420605659485,
        0.6223632097244263
      ],
      "scale": [0.9999999403953552, 1, 1],
      "translation": [-0.012048359028995037, 0.08884185552597046, 0.10407513380050659]
    },
    {
      "name": "breast.L",
      "rotation": [
        -8.267495132940894e-8,
        0.696936309337616,
        0.717133104801178,
        5.2617245671626733e-8
      ],
      "scale": [1, 0.9999998807907104, 0.9999999403953552],
      "translation": [0.0779520645737648, -0.004715029615908861, 0.02440619096159935]
    },
    {
      "name": "breast.R",
      "rotation": [
        -1.2083181388788944e-7,
        0.6969362497329712,
        0.7171331644058228,
        5.26172350134857e-8
      ],
      "translation": [-0.077952079474926, -0.0047150892205536366, 0.024406151846051216]
    },
    {
      "children": [4, 8, 12, 13, 14],
      "name": "spine.003",
      "rotation": [
        0.0016271623317152262,
        -3.8129272823947055e-15,
        3.87945842117432e-10,
        0.9999986886978149
      ],
      "translation": [-4.440892098500626e-16, 0.11382552236318588, 1.862645593320167e-9]
    },
    {
      "children": [15],
      "name": "spine.002",
      "rotation": [
        -0.07746417820453644,
        3.8974920872332595e-15,
        -1.8468895746082126e-8,
        0.9969951510429382
      ],
      "scale": [1, 1.0000001192092896, 1],
      "translation": [-2.6645352591003757e-15, 0.08995877206325531, 1.4901161193847656e-8]
    },
    {
      "children": [16],
      "name": "spine.001",
      "rotation": [
        0.19865283370018005,
        1.0874878132879039e-14,
        4.736251568715488e-8,
        0.9800699353218079
      ],
      "scale": [1, 0.9999998807907104, 1],
      "translation": [5.147792761994122e-15, 0.10088248550891876, -5.758927112964329e-9]
    },
    {
      "name": "pelvis.L",
      "rotation": [
        -0.01235220581293106,
        -0.6911011338233948,
        -0.4829755425453186,
        0.5375511646270752
      ],
      "scale": [0.9999998807907104, 1, 1.0000001192092896],
      "translation": [-2.1787668558204132e-8, 4.2642650299740126e-8, 5.050101670178719e-9]
    },
    {
      "name": "pelvis.R",
      "rotation": [
        -0.012352400459349155,
        0.6911011338233948,
        0.482975572347641,
        0.5375512838363647
      ],
      "scale": [1, 1, 0.9999998807907104],
      "translation": [3.1967260838428047e-8, -9.427314040522106e-9, -3.527342329334715e-8]
    },
    {
      "name": "toe.L",
      "rotation": [
        -0.00015562938642688096,
        0.9767524003982544,
        0.2143709808588028,
        -5.429895281849895e-6
      ],
      "scale": [0.9999999403953552, 0.9999995827674866, 1],
      "translation": [2.5155408867050255e-9, 0.20196056365966797, -6.446566835904832e-9]
    },
    {
      "name": "heel.02.L",
      "rotation": [
        0.7001370787620544,
        0.7003461718559265,
        -0.09825916588306427,
        0.09832827001810074
      ],
      "scale": [1, 1.0000001192092896, 1],
      "translation": [-0.03798849135637283, -0.01778942532837391, 0.03161923587322235]
    },
    {
      "children": [20, 21],
      "name": "foot.L",
      "rotation": [
        -0.6459998488426208,
        0.0020738441962748766,
        0.0006383024156093597,
        0.7633344531059265
      ],
      "scale": [1, 1, 0.9999999403953552],
      "translation": [2.428526535425135e-8, 0.3767678141593933, -5.682911918825084e-10]
    },
    {
      "children": [22],
      "name": "shin.L",
      "rotation": [
        0.05709892138838768,
        0.00987465213984251,
        0.16069746017456055,
        0.9853012561798096
      ],
      "scale": [0.9999998807907104, 0.9999998211860657, 0.9999998807907104],
      "translation": [1.8738994356226613e-8, 0.2985941469669342, -2.2033792568265653e-9]
    },
    {
      "children": [23],
      "name": "thigh.L",
      "rotation": [
        -0.9777601361274719,
        -0.1593352109193802,
        -0.019165610894560814,
        0.13501939177513123
      ],
      "scale": [1.000000238418579, 1, 1.0000001192092896],
      "translation": [0.09569617360830307, 0.010155808180570602, 0.0228438563644886]
    },
    {
      "name": "toe.R",
      "rotation": [
        0.09576771408319473,
        -0.8516369462013245,
        0.36892491579055786,
        0.35977429151535034
      ],
      "scale": [1, 1.0000001192092896, 1],
      "translation": [9.394715227983852e-9, 0.09493725001811981, -7.144732361297201e-9]
    },
    {
      "name": "heel.02.R",
      "rotation": [
        0.7423585057258606,
        -0.42518362402915955,
        0.39572325348854065,
        0.3339548707008362
      ],
      "scale": [0.9999996423721313, 0.9999996423721313, 0.9999999403953552],
      "translation": [0.06039944663643837, 0.046524569392204285, 0.05626761540770531]
    },
    {
      "children": [25, 26],
      "name": "foot.R",
      "rotation": [
        -0.2724599242210388,
        0.10928016901016235,
        0.28269869089126587,
        0.9131839275360107
      ],
      "scale": [0.9999998807907104, 0.9999998807907104, 0.9999998211860657],
      "translation": [-2.1311841180704505e-8, 0.2731502652168274, -2.1769974711816076e-10]
    },
    {
      "children": [27],
      "name": "shin.R",
      "rotation": [
        0.0007530706352554262,
        -0.017461396753787994,
        -0.021191824227571487,
        0.999622642993927
      ],
      "scale": [0.9999998807907104, 1, 0.9999999403953552],
      "translation": [-1.2700846596658266e-8, 0.3614378869533539, -2.3131618842597845e-9]
    },
    {
      "children": [28],
      "name": "thigh.R",
      "rotation": [
        -0.9797896146774292,
        0.11253096163272858,
        0.010626660659909248,
        0.1650339961051941
      ],
      "scale": [1.0000001192092896, 1, 1.0000003576278687],
      "translation": [-0.0570950023829937, -0.005766384303569794, 0.039062026888132095]
    },
    {
      "children": [17, 18, 19, 24, 29],
      "name": "spine",
      "rotation": [
        -0.13790936768054962,
        1.1807020428022952e-7,
        -1.6440074190882115e-8,
        0.9904448986053467
      ],
      "scale": [1, 1.0000001192092896, 1.0000001192092896],
      "translation": [1.933435855860921e-9, 0.6775338053703308, -0.036396484822034836]
    },
    {
      "mesh": 0,
      "name": "result_collage_03_256",
      "skin": 0
    },
    {
      "children": [31, 30],
      "name": "metarig"
    }
  ],
  "materials": [
    {
      "doubleSided": true,
      "name": "Material.001",
      "pbrMetallicRoughness": {
        "baseColorTexture": {
          "index": 0,
          "texCoord": 0
        },
        "metallicFactor": 0,
        "roughnessFactor": 0.5
      }
    }
  ],
  "meshes": [
    {
      "name": "result_collage_03_256",
      "primitives": [
        {
          "attributes": {
            "POSITION": 0,
            "NORMAL": 1,
            "TEXCOORD_0": 2,
            "JOINTS_0": 3,
            "WEIGHTS_0": 4
          },
          "indices": 5,
          "material": 0
        }
      ]
    }
  ],
  "textures": [
    {
      "sampler": 0,
      "source": 0
    }
  ],
  "images": [
    {
      "mimeType": "image/png",
      "name": "texture-avatar",
      "uri": "texture-avatar.png"
    }
  ],
  "skins": [
    {
      "inverseBindMatrices": 6,
      "joints": [
        30,
        17,
        16,
        15,
        4,
        3,
        2,
        8,
        7,
        6,
        5,
        12,
        11,
        10,
        9,
        13,
        14,
        18,
        19,
        24,
        23,
        22,
        20,
        21,
        29,
        28,
        27,
        25,
        26
      ],
      "name": "metarig"
    }
  ],
  "accessors": [
    {
      "bufferView": 0,
      "componentType": 5126,
      "count": 335192,
      "max": [0.6976636648178101, 1.6005445718765259, 0.33759987354278564],
      "min": [-0.33173635601997375, -0.2096552848815918, -0.1551998406648636],
      "type": "VEC3"
    },
    {
      "bufferView": 1,
      "componentType": 5126,
      "count": 335192,
      "type": "VEC3"
    },
    {
      "bufferView": 2,
      "componentType": 5126,
      "count": 335192,
      "type": "VEC2"
    },
    {
      "bufferView": 3,
      "componentType": 5121,
      "count": 335192,
      "type": "VEC4"
    },
    {
      "bufferView": 4,
      "componentType": 5126,
      "count": 335192,
      "type": "VEC4"
    },
    {
      "bufferView": 5,
      "componentType": 5125,
      "count": 335778,
      "type": "SCALAR"
    },
    {
      "bufferView": 6,
      "componentType": 5126,
      "count": 29,
      "type": "MAT4"
    }
  ],
  "bufferViews": [
    {
      "buffer": 0,
      "byteLength": 4022304,
      "byteOffset": 0
    },
    {
      "buffer": 0,
      "byteLength": 4022304,
      "byteOffset": 4022304
    },
    {
      "buffer": 0,
      "byteLength": 2681536,
      "byteOffset": 8044608
    },
    {
      "buffer": 0,
      "byteLength": 1340768,
      "byteOffset": 10726144
    },
    {
      "buffer": 0,
      "byteLength": 5363072,
      "byteOffset": 12066912
    },
    {
      "buffer": 0,
      "byteLength": 1343112,
      "byteOffset": 17429984
    },
    {
      "buffer": 0,
      "byteLength": 1856,
      "byteOffset": 18773096
    }
  ],
  "samplers": [
    {
      "magFilter": 9729,
      "minFilter": 9986
    }
  ],
  "buffers": [
    {
      "byteLength": 18774952,
      "uri": "collage_03_rigged.bin"
    }
  ]
}
